<svg xmlns="http://www.w3.org/2000/svg" width="2716" height="1600" viewBox="0 0 2716 1600"><rect width="100%" height="100%" fill="#DDDDDD"/><path fill="#999999" d="M627.41 870.5h53.05q5.72 0 9.09 3.22 3.36 3.21 3.36 8.51v21.16H551.05v-11.73q0-3.57 1.5-7.5 1.5-3.94 4.79-7.08l62.78-62.92q7.86-8.01 14.08-15.3 6.22-7.3 10.37-14.45 4.15-7.15 6.37-14.51 2.21-7.37 2.21-15.52 0-7.43-2.14-13.08-2.15-5.65-6.08-9.51-3.93-3.86-9.44-5.79-5.5-1.93-12.37-1.93-6.29 0-11.65 1.79-5.37 1.78-9.51 5-4.15 3.22-7.01 7.51-2.86 4.29-4.29 9.44-2.43 6.57-6.29 8.72-3.86 2.14-11.16 1l-18.59-3.29q2.15-14.87 8.3-26.1 6.15-11.22 15.37-18.73 9.22-7.51 21.17-11.3 11.94-3.79 25.66-3.79 14.3 0 26.17 4.22 11.87 4.22 20.31 11.94t13.15 18.59q4.72 10.87 4.72 24.17 0 11.44-3.36 21.16-3.36 9.73-9.01 18.59-5.64 8.87-13.22 17.16-7.58 8.3-15.88 16.88l-46.61 47.62q6.72-2.01 13.37-3.08 6.65-1.07 12.65-1.07Zm91.95-173.89h142.86v15.3q0 6.87-1.43 11.09-1.43 4.21-2.86 7.07l-78.37 161.31q-2.43 5-6.86 8.51-4.43 3.5-11.87 3.5h-25.6l79.94-158.02q2.72-4.86 5.36-8.93 2.65-4.08 5.94-7.8h-98.96q-3.29 0-5.72-2.43-2.43-2.43-2.43-5.72v-23.88Zm263.41 180.32h37.18v26.46h-114.4v-26.46h41.9V756.39q0-7.15.42-14.73l-29.74 24.88q-2.57 2-5.08 2.5-2.5.5-4.71.07-2.22-.43-3.94-1.5-1.71-1.07-2.57-2.36l-11.16-15.3 63.07-53.62h29.03v180.6Zm191.04-180.32-61.34 75.08-7.15 8.86q6-3 12.94-4.64 6.93-1.65 14.94-1.65 11.73 0 22.81 3.86 11.08 3.86 19.52 11.66 8.44 7.79 13.59 19.37 5.14 11.59 5.14 27.03 0 14.44-5.29 27.1-5.29 12.65-14.87 22.09-9.58 9.44-23.09 14.87-13.52 5.44-29.82 5.44-16.59 0-29.74-5.29-13.16-5.29-22.45-14.8-9.3-9.51-14.23-22.88-4.94-13.37-4.94-29.68 0-14.58 5.94-29.95 5.93-15.38 18.37-31.97l49.34-66.2q2.57-3.44 7.51-5.87 4.93-2.43 11.36-2.43h31.46Zm-53.33 180.18q8.43 0 15.51-2.86t12.16-8.01q5.07-5.14 7.93-12.08 2.86-6.94 2.86-15.09 0-8.86-2.71-15.94-2.72-7.08-7.73-12.01-5-4.94-12.01-7.51-7.01-2.57-15.44-2.57-8.44 0-15.3 2.86-6.87 2.86-11.73 7.93-4.86 5.08-7.58 12.01-2.72 6.94-2.72 14.95 0 8.58 2.36 15.66 2.36 7.07 7.01 12.08 4.65 5 11.51 7.79 6.87 2.79 15.88 2.79Zm303.16-20.73-18.74 18.44-48.47-48.47-48.91 48.76-18.73-18.45 48.9-49.05-46.62-46.61 18.59-18.59 46.62 46.61 46.33-46.33 18.88 18.59-46.47 46.48 48.62 48.62Zm195.76 20.87h37.18v26.46h-114.4v-26.46h41.9V756.39q0-7.15.43-14.73l-29.74 24.88q-2.58 2-5.08 2.5t-4.72.07q-2.22-.43-3.93-1.5-1.72-1.07-2.58-2.36l-11.15-15.3 63.06-53.62h29.03v180.6Zm191.05-180.32-61.35 75.08-7.15 8.86q6.01-3 12.95-4.64 6.93-1.65 14.94-1.65 11.72 0 22.81 3.86 11.08 3.86 19.52 11.66 8.43 7.79 13.58 19.37 5.15 11.59 5.15 27.03 0 14.44-5.29 27.1-5.29 12.65-14.87 22.09-9.58 9.44-23.1 14.87-13.51 5.44-29.81 5.44-16.59 0-29.75-5.29-13.15-5.29-22.45-14.8-9.29-9.51-14.23-22.88-4.93-13.37-4.93-29.68 0-14.58 5.93-29.95 5.94-15.38 18.38-31.97l49.33-66.2q2.58-3.44 7.51-5.87 4.94-2.43 11.37-2.43h31.46Zm-53.34 180.18q8.44 0 15.52-2.86t12.15-8.01q5.08-5.14 7.94-12.08 2.86-6.94 2.86-15.09 0-8.86-2.72-15.94t-7.72-12.01q-5.01-4.94-12.01-7.51-7.01-2.57-15.45-2.57-8.43 0-15.3 2.86-6.86 2.86-11.72 7.93-4.87 5.08-7.58 12.01-2.72 6.94-2.72 14.95 0 8.58 2.36 15.66 2.36 7.07 7.01 12.08 4.64 5 11.51 7.79 6.86 2.79 15.87 2.79ZM1999.07 800q0 27.03-5.79 46.98-5.8 19.94-16.02 32.96-10.22 13.01-24.17 19.37-13.94 6.37-30.1 6.37-16.16 0-29.96-6.37-13.8-6.36-23.95-19.37-10.15-13.02-15.87-32.96-5.72-19.95-5.72-46.98 0-27.17 5.72-47.05 5.72-19.87 15.87-32.89 10.15-13.01 23.95-19.37 13.8-6.37 29.96-6.37t30.1 6.37q13.95 6.36 24.17 19.37 10.22 13.02 16.02 32.89 5.79 19.88 5.79 47.05Zm-36.47 0q0-22.45-3.29-37.18t-8.79-23.45q-5.51-8.72-12.66-12.23-7.15-3.5-14.87-3.5-7.58 0-14.66 3.5-7.07 3.51-12.51 12.23-5.43 8.72-8.65 23.45-3.22 14.73-3.22 37.18t3.22 37.18q3.22 14.73 8.65 23.45 5.44 8.73 12.51 12.23 7.08 3.5 14.66 3.5 7.72 0 14.87-3.5 7.15-3.5 12.66-12.23 5.5-8.72 8.79-23.45 3.29-14.73 3.29-37.18Zm202.35 0q0 27.03-5.79 46.98-5.8 19.94-16.02 32.96-10.22 13.01-24.17 19.37-13.94 6.37-30.1 6.37-16.16 0-29.96-6.37-13.8-6.36-23.95-19.37-10.15-13.02-15.87-32.96-5.72-19.95-5.72-46.98 0-27.17 5.72-47.05 5.72-19.87 15.87-32.89 10.15-13.01 23.95-19.37 13.8-6.37 29.96-6.37t30.1 6.37q13.95 6.36 24.17 19.37 10.22 13.02 16.02 32.89 5.79 19.88 5.79 47.05Zm-36.47 0q0-22.45-3.29-37.18t-8.79-23.45q-5.51-8.72-12.66-12.23-7.15-3.5-14.87-3.5-7.58 0-14.66 3.5-7.07 3.51-12.51 12.23-5.43 8.72-8.65 23.45-3.22 14.73-3.22 37.18t3.22 37.18q3.22 14.73 8.65 23.45 5.44 8.73 12.51 12.23 7.08 3.5 14.66 3.5 7.72 0 14.87-3.5 7.15-3.5 12.66-12.23 5.5-8.72 8.79-23.45 3.29-14.73 3.29-37.18Z"/></svg>